<svg width="435" height="260" viewBox="0 0 435 260" fill="none" xmlns="http://www.w3.org/2000/svg">
<g clip-path="url(#clip0_17153_231)">
<path d="M333.046 257.06C327.477 252.355 324.094 244.923 324.981 237.688C325.869 230.453 331.363 223.802 338.491 222.265C345.618 220.729 353.743 224.982 355.907 231.943C357.099 218.523 358.472 204.541 365.608 193.113C372.07 182.765 383.263 175.361 395.393 174.036C407.523 172.712 420.294 177.715 427.859 187.286C435.424 196.858 437.276 210.773 431.978 221.762C428.075 229.857 420.884 235.881 413.35 240.782C389.004 256.487 359.804 262.873 331.123 258.766L333.046 257.06Z" fill="#F2F2F2"/>
<path d="M415.864 177.992C405.855 186.142 396.673 195.257 388.451 205.206C375.583 220.722 365.17 238.118 357.575 256.789C357.019 258.151 359.231 258.744 359.781 257.397C372.208 227.053 392.046 200.309 417.482 179.609C418.624 178.679 416.997 177.07 415.864 177.992Z" fill="white"/>
<path d="M140.034 255.782C147.683 249.32 152.329 239.112 151.111 229.175C149.892 219.237 142.345 210.102 132.556 207.991C122.766 205.881 111.607 211.723 108.634 221.283C106.997 202.851 105.112 183.647 95.3095 167.951C86.4339 153.738 71.0612 143.568 54.4006 141.749C37.74 139.929 20.1986 146.801 9.80803 159.947C-0.582548 173.094 -3.12664 192.206 4.15065 207.299C9.51158 218.418 19.3883 226.693 29.7366 233.424C62.7514 254.901 103.706 263.859 142.675 258.125" fill="#F2F2F2"/>
<path d="M26.2834 147.182C40.0304 158.376 52.6418 170.896 63.9353 184.56C75.2305 198.21 85.1748 212.924 93.6283 228.494C98.3535 237.228 102.598 246.213 106.344 255.41C107.107 257.281 104.069 258.095 103.313 256.245C96.6795 240.031 88.4721 224.507 78.8089 209.894C69.1926 195.334 58.1863 181.741 45.9445 169.305C39.0205 162.275 31.7151 155.631 24.0614 149.403C22.4926 148.126 24.7275 145.915 26.2834 147.182L26.2834 147.182Z" fill="white"/>
<path d="M312.25 259.431H129.75V72.2308C129.75 32.4025 162.161 0 202 0H240C279.839 0 312.25 32.4025 312.25 72.2308V259.431Z" fill="#F2F2F2"/>
<path d="M274.25 259.431H129.75V72.2308C129.71 56.9695 134.544 42.0939 143.548 29.7699C143.88 29.3176 144.211 28.8712 144.552 28.4297C148.907 22.7192 154.09 17.6901 159.929 13.5084C160.259 13.2684 160.59 13.0327 160.926 12.7969C165.812 9.4165 171.098 6.6531 176.662 4.56958C176.993 4.44437 177.329 4.31892 177.666 4.19858C182.698 2.4031 187.915 1.1732 193.22 0.531598C193.549 0.486685 193.886 0.45154 194.224 0.416394C199.394 -0.136194 204.607 -0.136194 209.777 0.416394C210.114 0.45154 210.451 0.48668 210.784 0.532078C216.087 1.17372 221.303 2.40347 226.334 4.19861C226.671 4.31894 227.007 4.44439 227.339 4.56984C232.834 6.62708 238.058 9.34924 242.892 12.6756C243.228 12.9062 243.564 13.142 243.895 13.3778C247.168 15.7136 250.242 18.3157 253.087 21.1577C255.368 23.4373 257.493 25.8673 259.449 28.4312C259.789 28.8712 260.12 29.3177 260.452 29.7692C269.456 42.0934 274.29 56.9692 274.25 72.2308V259.431Z" fill="#CCCCCC"/>
<path d="M262.5 175.703C266.918 175.703 270.5 172.122 270.5 167.705C270.5 163.288 266.918 159.707 262.5 159.707C258.082 159.707 254.5 163.288 254.5 167.705C254.5 172.122 258.082 175.703 262.5 175.703Z" fill="#880ED4"/>
<path d="M297.3 253.824H291.17L288.253 230.186L297.301 230.187L297.3 253.824Z" fill="#FFB8B8"/>
<path d="M286.791 252.073H298.613V259.514H279.347C279.347 258.537 279.54 257.569 279.914 256.666C280.288 255.764 280.836 254.943 281.528 254.252C282.219 253.561 283.039 253.013 283.942 252.639C284.845 252.265 285.813 252.073 286.791 252.073Z" fill="#2F2E41"/>
<path d="M327.8 253.824H321.67L318.753 230.186L327.801 230.187L327.8 253.824Z" fill="#FFB8B8"/>
<path d="M317.291 252.073H329.113V259.514H309.847C309.847 258.537 310.04 257.569 310.414 256.666C310.788 255.764 311.336 254.943 312.028 254.252C312.719 253.561 313.539 253.013 314.442 252.639C315.345 252.265 316.313 252.073 317.291 252.073Z" fill="#2F2E41"/>
<path d="M266.549 169.29C266.108 168.64 265.815 167.902 265.69 167.127C265.565 166.352 265.612 165.559 265.827 164.804C266.042 164.049 266.42 163.35 266.934 162.757C267.449 162.163 268.087 161.69 268.804 161.37L289.642 103.952L299.896 109.546L276.103 164.417C276.561 165.657 276.548 167.022 276.066 168.253C275.585 169.484 274.668 170.495 273.491 171.096C272.313 171.697 270.956 171.845 269.676 171.512C268.397 171.179 267.284 170.388 266.549 169.29Z" fill="#FFB8B8"/>
<path d="M324.668 180.079C323.987 179.688 323.4 179.153 322.948 178.511C322.496 177.869 322.19 177.136 322.052 176.363C321.914 175.59 321.947 174.797 322.149 174.038C322.352 173.28 322.718 172.575 323.222 171.973L316.766 111.234L328.435 111.767L331.118 171.511C332.073 172.425 332.66 173.657 332.767 174.975C332.874 176.292 332.495 177.603 331.7 178.659C330.905 179.715 329.75 180.443 328.454 180.705C327.158 180.966 325.811 180.744 324.668 180.079Z" fill="#FFB8B8"/>
<path d="M306.053 93.3169C312.835 93.3169 318.333 87.8202 318.333 81.0397C318.333 74.2592 312.835 68.7625 306.053 68.7625C299.271 68.7625 293.772 74.2592 293.772 81.0397C293.772 87.8202 299.271 93.3169 306.053 93.3169Z" fill="#FFB8B8"/>
<path d="M324.59 166.265H287.566L287.611 165.977C287.677 165.546 294.209 122.769 289.392 108.774C288.908 107.399 288.951 105.893 289.511 104.548C290.071 103.202 291.11 102.111 292.426 101.484H292.427C299.312 98.2426 312.53 94.2508 323.687 103.938C325.328 105.387 326.61 107.198 327.431 109.228C328.252 111.258 328.589 113.451 328.416 115.633L324.59 166.265Z" fill="#880ED4"/>
<path d="M294.677 129.091L278.009 125.71L285.822 107.2C286.29 105.407 287.449 103.873 289.047 102.934C290.644 101.995 292.549 101.728 294.344 102.191C296.138 102.654 297.675 103.81 298.619 105.405C299.562 106.999 299.834 108.903 299.375 110.698L294.677 129.091Z" fill="#880ED4"/>
<path d="M316.025 135.368L315.023 112.403C314.263 108.086 316.735 104.006 320.537 103.338C324.34 102.674 328.053 105.668 328.816 110.017L332.583 131.475L316.025 135.368Z" fill="#880ED4"/>
<path d="M323.358 163.516C329.315 186.198 329.965 215.037 328.358 246.494L320.358 245.494L305.858 185.51L297.858 246.494L288.858 245.994C286.169 212.988 283.551 184.652 287.858 166.015L323.358 163.516Z" fill="#2F2E41"/>
<path d="M314.145 90.5278C311.854 92.9676 307.599 91.6579 307.3 88.3248C307.277 88.0661 307.279 87.8056 307.305 87.5472C307.46 86.0708 308.313 84.7304 308.108 83.1716C308.062 82.7836 307.918 82.4139 307.688 82.0974C305.863 79.6534 301.577 83.1906 299.854 80.9781C298.798 79.6214 300.04 77.4854 299.229 75.9691C298.159 73.9679 294.99 74.9551 293.002 73.8591C290.791 72.6397 290.923 69.2477 292.379 67.1846C294.154 64.6684 297.266 63.3258 300.34 63.1323C303.414 62.9388 306.467 63.7695 309.336 64.8876C312.597 66.1579 315.83 67.9135 317.837 70.7798C320.277 74.2654 320.512 78.9516 319.291 83.0274C318.549 85.5067 316.015 88.5355 314.145 90.5278Z" fill="#2F2E41"/>
<path d="M419.991 259.752H50.8438C50.6862 259.752 50.5352 259.689 50.424 259.578C50.3127 259.466 50.2502 259.315 50.2502 259.157C50.2502 259 50.3127 258.849 50.424 258.737C50.5352 258.626 50.6862 258.563 50.8438 258.562H419.991C420.148 258.563 420.299 258.626 420.411 258.737C420.522 258.849 420.584 259 420.584 259.157C420.584 259.315 420.522 259.466 420.411 259.578C420.299 259.689 420.148 259.752 419.991 259.752Z" fill="#3F3D56"/>
<path d="M234.5 205.195H169.5C168.644 205.2 167.821 204.865 167.212 204.264C166.603 203.663 166.257 202.844 166.25 201.989V56.9424C166.257 56.0866 166.603 55.2684 167.212 54.6672C167.821 54.0661 168.644 53.731 169.5 53.7356H234.5C235.356 53.731 236.179 54.0661 236.788 54.6672C237.398 55.2684 237.743 56.0866 237.75 56.9424V201.989C237.743 202.844 237.398 203.663 236.788 204.264C236.179 204.865 235.356 205.2 234.5 205.195Z" fill="white"/>
<path d="M237.75 100.668H166.25V101.668H237.75V100.668Z" fill="#CCCCCC"/>
<path d="M238 157.708H166.5V158.708H238V157.708Z" fill="#CCCCCC"/>
<path d="M189.75 53.7357H188.75V205.695H189.75V53.7357Z" fill="#CCCCCC"/>
<path d="M214.75 53.7357H213.75V205.695H214.75V53.7357Z" fill="#CCCCCC"/>
</g>
<defs>
<clipPath id="clip0_17153_231">
<rect width="435" height="260" fill="white"/>
</clipPath>
</defs>
</svg>
