<svg width="407" height="245" viewBox="0 0 407 245" fill="none" xmlns="http://www.w3.org/2000/svg">
<g clip-path="url(#clip0_17153_300)">
<path d="M21.2349 244.453C21.2077 244.332 18.5744 232.31 23.9522 222.325C29.33 212.34 40.8093 207.937 40.9246 207.893L41.4493 207.696L41.5732 208.244C41.6004 208.364 44.2337 220.386 38.8559 230.371C33.4784 240.356 21.9988 244.76 21.8835 244.803L21.3586 245L21.2349 244.453ZM40.7298 209.032C38.4304 210.023 29.3553 214.357 24.8133 222.79C20.2708 231.224 21.6413 241.198 22.0783 243.664C24.3768 242.676 33.4483 238.349 37.9948 229.906C42.537 221.473 41.167 211.5 40.7298 209.032V209.032Z" fill="#F1F1F1"/>
<path d="M34.7462 226.869C25.0821 232.69 21.3601 244.253 21.3601 244.253C21.3601 244.253 33.3068 246.377 42.9709 240.556C52.6351 234.735 56.357 223.172 56.357 223.172C56.357 223.172 44.4103 221.047 34.7462 226.869Z" fill="#F1F1F1"/>
<path d="M181.097 133.549C181.245 132.787 181.223 132.002 181.035 131.25C180.847 130.497 180.496 129.795 180.007 129.193C179.519 128.591 178.904 128.104 178.207 127.765C177.51 127.427 176.747 127.245 175.972 127.234L171.497 115.966L163.994 117.019L170.538 132.842C170.605 134.147 171.147 135.381 172.062 136.312C172.978 137.242 174.202 137.805 175.504 137.892C176.806 137.979 178.094 137.585 179.125 136.784C180.156 135.984 180.858 134.833 181.097 133.549Z" fill="#9F616A"/>
<path d="M167.275 129.589L164.95 124.039L150.464 96.4303L151.251 45.3439L151.403 45.3238C160.672 44.0976 166.944 86.8602 167.207 88.6813L176.36 120.023L178.538 126.931L167.275 129.589Z" fill="#880ED4"/>
<path d="M145.016 237.313L152.059 237.313L155.41 210.112L145.014 210.113L145.016 237.313Z" fill="#9F616A"/>
<path d="M143.219 235.011L157.09 235.01H157.091C159.435 235.011 161.683 235.943 163.341 237.603C164.999 239.262 165.93 241.514 165.93 243.861V244.148L143.219 244.149L143.219 235.011Z" fill="#2F2E41"/>
<path d="M80.2526 226.569L86.0318 230.601L104.314 210.203L95.7847 204.252L80.2526 226.569Z" fill="#9F616A"/>
<path d="M80.0935 223.652L91.4742 231.592L91.4747 231.592C93.398 232.934 94.7101 234.986 95.1224 237.297C95.5347 239.607 95.0133 241.987 93.6731 243.913L93.5088 244.149L74.8754 231.149L80.0935 223.652Z" fill="#2F2E41"/>
<path d="M141.144 230.92L140.84 179.893L136.408 147.808L128.146 176.024L128.129 176.047L98.1867 219.57L86.5356 213.659L86.5995 213.508C87.3115 211.812 104.089 171.988 108.599 171.988C108.993 172.016 109.388 171.947 109.749 171.788C110.11 171.629 110.428 171.385 110.674 171.076C111.997 169.306 110.92 165.551 110.909 165.513C109.618 160.153 112.864 158.328 113.51 158.023L115.249 122.085L115.429 122.097L162.57 125.408L160.592 170.341L156.338 229.212L156.191 229.229L141.144 230.92Z" fill="#2F2E41"/>
<path d="M163.29 133.371L163.086 133.355L112.388 129.263L112.513 112.468L114.994 68.6156L115.008 68.5852L125.114 46.6201L132.277 43.3724L142.728 42.8218L142.754 42.8282L152.292 45.1941L162.214 116.506L163.29 133.371Z" fill="#880ED4"/>
<path d="M144.366 37.1926C150.835 33.6522 153.212 25.532 149.676 19.0556C146.14 12.5791 138.029 10.1989 131.561 13.7393C125.092 17.2796 122.715 25.3999 126.251 31.8763C129.787 38.3528 137.897 40.7329 144.366 37.1926Z" fill="#9F616A"/>
<path d="M124.539 28.8206V23.6135C124.539 23.6135 120.345 18.6679 124.959 17.4221C124.959 17.4221 126.217 4.96396 137.122 10.7777C137.122 10.7777 152.221 8.28613 150.543 17.0068C150.543 17.0068 154.318 14.7301 153.06 20.5439L150.626 29.9089C150.626 29.9089 151.801 23.7227 148.027 22.8921L145.929 21.6463C145.929 21.6463 140.058 27.4601 131.25 20.4005C131.25 20.4005 127.475 19.4985 127.895 23.2359C128.314 26.9733 124.539 28.8206 124.539 28.8206Z" fill="#2F2E41"/>
<path d="M136.574 120.829C136.582 120.053 136.421 119.285 136.1 118.579C135.78 117.872 135.309 117.245 134.721 116.74C134.132 116.236 133.44 115.866 132.694 115.659C131.947 115.451 131.164 115.409 130.4 115.537L123.978 105.256L116.785 107.64L126.059 122.031C126.358 123.303 127.113 124.42 128.181 125.171C129.248 125.922 130.553 126.255 131.85 126.106C133.146 125.958 134.343 125.339 135.213 124.366C136.084 123.394 136.568 122.135 136.574 120.829Z" fill="#9F616A"/>
<path d="M119.986 117.588L108.367 93.9701L108.377 93.9127C108.424 93.6512 113.101 67.6508 116.678 58.0939C120.278 48.4765 125.205 46.5455 125.413 46.468L125.517 46.4293L129.935 50.6722L123.815 91.5713L130.412 111.296L119.986 117.588Z" fill="#880ED4"/>
<path d="M407 0H384.503V22.524H407V0Z" fill="#F1F1F1"/>
<path d="M230.938 87.6475H208.441V110.171H230.938V87.6475Z" fill="#F1F1F1"/>
<path d="M221.068 100.301H398.927V10.1523H221.068V100.301Z" fill="white"/>
<path d="M400.395 101.77H219.601V8.68335H400.395V101.77ZM222.535 98.8325H397.46V11.6213H222.535V98.8325Z" fill="#E5E5E5"/>
<path d="M379.26 41.775H242.417V46.3186H379.26V41.775Z" fill="#E5E5E5"/>
<path d="M379.26 52.7936H242.417V57.3372H379.26V52.7936Z" fill="#E5E5E5"/>
<path d="M379.26 69.063H353.828V73.006H379.26V69.063Z" fill="#880ED4"/>
<path d="M186.822 244.98H0.489062C0.359354 244.98 0.234959 244.929 0.143242 244.837C0.0515256 244.745 0 244.62 0 244.491C0 244.361 0.0515256 244.236 0.143242 244.144C0.234959 244.052 0.359354 244.001 0.489062 244.001H186.822C186.951 244.001 187.076 244.052 187.167 244.144C187.259 244.236 187.311 244.361 187.311 244.491C187.311 244.62 187.259 244.745 187.167 244.837C187.076 244.929 186.951 244.98 186.822 244.98Z" fill="#CBCBCB"/>
</g>
<defs>
<clipPath id="clip0_17153_300">
<rect width="407" height="245" fill="white"/>
</clipPath>
</defs>
</svg>
